<svg width="65" height="65" viewBox="0 0 65 65" fill="none" xmlns="http://www.w3.org/2000/svg">
<rect x="2.70833" y="2.70833" width="59.5833" height="59.5833" rx="29.7917" fill="#F40000" stroke="white" stroke-width="4.58333"/>
<path fill-rule="evenodd" clip-rule="evenodd" d="M13.1655 30.5656C14.3121 28.444 16.2931 26.1299 18.6325 25.3572C19.113 25.2374 19.7517 25.1027 20.1778 25.4311C20.5567 25.712 20.6076 26.1922 20.5218 26.6246C20.4093 27.1357 20.0589 27.7833 19.4731 27.8656C19.3676 27.8654 19.278 27.8281 19.2098 27.7541C19.0571 27.6058 19.0685 27.3895 19.1008 27.1944C19.1973 26.7886 19.5733 26.3576 20.006 26.301C20.08 26.2536 20.0486 26.1639 20.0277 26.1007C19.9702 26.0106 19.9018 25.9419 19.7961 25.9206C19.3272 25.866 18.9728 26.1602 18.613 26.4068C17.2483 27.5045 16.2571 28.9148 15.424 30.3203C14.7445 31.584 14.1649 32.8901 13.9963 34.3665C13.9134 35.437 14.2528 36.4879 15.2057 37.0029C16.2376 37.5498 17.5735 37.1799 18.6084 36.8986L19.5587 36.6064L21.3858 36.0642C23.1178 35.5587 25.286 35.4449 26.9771 36.1152C27.9989 36.5408 29.052 37.1248 29.7183 38.1293C29.7183 38.1556 29.7183 38.1874 29.6865 38.1819C28.2372 37.7864 26.3503 37.3951 24.913 38.0808L24.8445 38.065C24.409 37.3671 23.672 36.9794 22.9182 36.8291C20.4821 36.5939 18.4788 37.7473 16.1886 38.0349C15.0276 38.1416 13.7829 38.1058 12.9737 37.2168C11.6963 35.941 11.8466 33.6892 12.4533 32.151C12.6503 31.6084 12.8947 31.0818 13.1655 30.5656Z" fill="white"/>
<path fill-rule="evenodd" clip-rule="evenodd" d="M26.1931 32.5099C26.113 32.7734 25.9906 33.0577 26.0742 33.3482C26.1003 33.4062 26.1633 33.4487 26.2212 33.4647C26.4588 33.4707 26.6177 33.255 26.7712 33.0867C27.4657 32.1238 27.9966 31.0866 28.4751 30.0331C28.555 29.8121 28.6822 29.6068 28.6778 29.3588C28.6728 29.3058 28.6201 29.2689 28.578 29.2423C28.4727 29.1945 28.3722 29.268 28.2877 29.3099C27.3516 30.0293 26.8469 31.0616 26.3792 32.041L26.1931 32.5099ZM19.0489 30.0533C19.0687 30.3699 19.3631 30.6454 19.6424 30.7518C19.7109 30.7731 19.8216 30.8262 19.88 30.7418C19.986 30.5419 20.0501 30.3205 20.1036 30.0991C20.1573 29.8093 20.2008 29.4192 19.9221 29.2283C19.8271 29.1752 19.6849 29.1693 19.5845 29.2165C19.2674 29.3736 19.0395 29.6947 19.0489 30.0533ZM18.1425 31.274C17.845 31.8743 17.5423 32.4798 17.5293 33.1918C17.5605 33.3239 17.639 33.4772 17.7865 33.5146C17.9447 33.5574 18.077 33.4733 18.1985 33.3946C18.7804 32.9061 19.1838 32.2378 19.5129 31.5952C19.5395 31.5322 19.5873 31.4531 19.5505 31.3844C19.2029 31.2462 18.8661 31.0074 18.5982 30.706L18.5401 30.6952C18.4874 30.7055 18.466 30.7582 18.4291 30.795L18.1425 31.274ZM16.5282 31.3265C17.1335 30.2156 18.0612 28.8579 19.3444 28.4509C19.6876 28.3729 20.0566 28.4058 20.3197 28.6337C20.8717 29.184 20.6573 30.1276 20.4704 30.7757C20.4704 30.8126 20.5018 30.8549 20.5387 30.8602C21.0294 30.8462 21.4257 30.6154 21.7803 30.279C22.5429 29.4273 23.3591 28.3118 24.5981 28.4426C24.8302 28.4804 25.0566 28.6129 25.1771 28.8297C25.4914 29.4532 25.1832 30.1432 24.7543 30.6217C24.5901 30.7795 24.3841 30.9001 24.1469 30.8253C24.052 30.7933 23.9732 30.6981 23.9366 30.6031C23.8484 30.1651 24.1031 29.7595 24.4572 29.5287C24.5579 29.429 24.8637 29.4984 24.7801 29.2715C24.717 29.1814 24.622 29.1706 24.5219 29.1702C23.9197 29.4214 23.5272 30.0372 23.1772 30.553C22.7369 31.2426 22.381 31.9743 22.1464 32.749C22.0821 33.0284 22.0018 33.3921 22.1644 33.651C22.2849 33.8149 22.4854 33.8842 22.6912 33.8322C23.288 33.597 23.8121 33.1187 24.2672 32.6246C25.3107 31.3728 25.8647 29.8237 27.2609 28.8053C27.6943 28.5062 28.3071 28.2761 28.8284 28.5521C28.9126 28.5843 28.9808 28.6952 29.0866 28.6533C29.1711 28.5694 29.2297 28.39 29.3984 28.4328C29.7836 28.4396 30.2268 28.42 30.622 28.4584L30.6483 28.4953L30.5368 28.7638L28.3692 33.1662C28.3481 33.2135 28.3426 33.2769 28.3529 33.3296C28.3896 33.3932 28.4688 33.3878 28.5267 33.3673C28.8387 33.1888 29.0824 32.8574 29.2998 32.5786C29.4905 32.3155 29.6603 32.0419 29.7985 31.7521C29.8567 31.6678 29.9256 31.5628 30.0417 31.579C30.163 31.5952 30.3159 31.543 30.4056 31.6277C30.267 31.9965 30.0496 32.3331 29.8585 32.6808C29.2698 33.5859 28.5014 34.6385 27.4191 34.9087C27.2396 34.9293 27.0181 34.9444 26.8814 34.8121C26.6708 34.6532 26.6613 34.3999 26.604 34.1728C26.583 34.1464 26.5461 34.1409 26.5145 34.1513C26.054 34.5666 25.5779 34.9815 24.9294 34.9003C24.7292 34.8573 24.5397 34.7037 24.4508 34.5135C24.283 34.191 24.3635 33.7748 24.3541 33.416C24.3385 33.3737 24.2858 33.3895 24.2646 33.4053C23.5607 34.0991 22.7989 34.7241 21.8647 34.9003C21.4318 34.9516 21.0578 34.8235 20.7688 34.5166C20.0704 33.6016 20.6233 32.4009 20.9902 31.5107C21.006 31.4686 21.0011 31.4105 20.9483 31.3997C20.6951 31.4199 20.4522 31.4612 20.2096 31.4974L20.1248 31.5921C19.5566 32.6449 18.941 33.7612 17.9203 34.5436C17.4973 34.8481 16.8687 35.057 16.3739 34.7757C15.8581 34.4205 15.8129 33.7873 15.8781 33.2021C16.0018 32.5378 16.2414 31.9215 16.5282 31.3265Z" fill="white"/>
<path fill-rule="evenodd" clip-rule="evenodd" d="M30.702 29.8035C30.9091 29.3928 31.0846 28.9662 31.3446 28.5768C31.4502 28.461 31.6138 28.4669 31.7564 28.4517L32.7953 28.4656L32.8375 28.5081C32.6621 28.9241 32.4706 29.3348 32.2528 29.735C32.1997 29.8403 32.0888 29.9402 31.9673 29.9557C31.5454 29.9647 31.0969 29.9895 30.6961 29.9512C30.654 29.909 30.6912 29.8511 30.702 29.8035Z" fill="white"/>
<path fill-rule="evenodd" clip-rule="evenodd" d="M37.4487 29.732C37.4641 29.8746 37.5214 30.0276 37.6692 30.0809C37.9536 30.161 38.1811 29.9508 38.3926 29.788C39.1552 28.9837 39.6171 28.0516 39.7371 26.9812C39.7375 26.823 39.7911 26.6227 39.7018 26.4853C39.6384 26.4744 39.5699 26.5007 39.517 26.5373C39.0041 26.8783 38.5223 27.3778 38.1725 27.8829C37.8066 28.4463 37.4722 29.0253 37.4487 29.732ZM31.7443 31.912C32.4668 30.4164 33.3369 28.974 34.5702 27.7017C35.7668 26.5086 37.0622 25.5425 38.63 25.2472C39.0574 25.1853 39.5374 25.224 39.8633 25.5153C39.9265 25.5682 40.0002 25.6211 40.0901 25.5899C41.215 25.14 42.7771 24.9818 43.9038 25.5448C44.5569 25.8638 45.1779 26.2719 45.8042 26.6646C45.8832 26.7071 45.8459 26.7912 45.8036 26.8386C45.4436 27.2383 45.1414 27.6488 44.8182 28.0642C44.7812 28.1012 44.7232 28.085 44.6864 28.0639L43.0288 26.9241C42.255 26.3991 41.3649 26.032 40.3569 26.1973C40.2459 26.255 40.2981 26.3923 40.2819 26.4978C40.3047 27.5317 39.9378 28.4325 39.4391 29.2537C39.0412 29.8273 38.5806 30.4269 37.9046 30.6198C37.6089 30.6821 37.3245 30.5914 37.1459 30.3534C36.6527 29.6026 37.0883 28.6864 37.4492 28.0176C37.8632 27.2912 38.504 26.6077 39.1969 26.0825C39.2129 26.0562 39.2445 26.0301 39.2235 25.9983C39.1552 25.9296 39.0388 25.9713 38.9545 25.9868C37.8296 26.3627 36.9294 27.3564 36.0979 28.2978C34.6147 30.123 33.4898 32.1025 32.8492 34.279C32.6511 35.0958 32.3831 36.3505 33.2145 36.9228C33.9462 37.3159 34.6496 36.8117 35.1999 36.3391C36.0362 35.4872 36.5988 34.5028 36.8294 33.3906C36.8675 33.0586 36.9586 32.6053 36.6536 32.3772C36.3796 32.2548 36.1521 32.4809 35.9669 32.6703C35.5377 33.1857 35.3565 33.8022 35.2802 34.4666C35.0899 34.6243 34.8626 34.7237 34.6616 34.876C34.2808 35.1384 33.9052 35.4905 33.6033 35.8429C33.5664 35.8532 33.5611 35.811 33.5506 35.79C33.5074 34.5661 33.9435 33.5178 34.6167 32.5759C35.1518 31.9553 35.8392 31.4248 36.672 31.6231C37.0356 31.719 37.2769 32.1051 37.3445 32.4482C37.4775 33.5986 36.9941 34.6046 36.4737 35.5416C35.6358 36.8574 34.3126 38.1872 32.6357 38.0285C31.9922 37.9895 31.3925 37.5443 31.1203 36.9526C30.4864 35.6897 30.9246 34.0664 31.3507 32.8441L31.7443 31.912Z" fill="white"/>
<path fill-rule="evenodd" clip-rule="evenodd" d="M46.0304 36.0335C46.0192 36.1864 45.9815 36.3762 46.0974 36.4927C46.1603 36.5561 46.2606 36.5618 46.3398 36.5357C46.6516 36.3735 46.8532 36.0416 47.0439 35.768C47.6803 34.7785 48.1481 33.7199 48.5845 32.6454C48.6007 32.5504 48.6275 32.4186 48.538 32.355C48.28 32.2329 48.0786 32.5171 47.8881 32.6536C47.0467 33.4893 46.6 34.5005 46.1796 35.517L46.0304 36.0335ZM40.2165 33.2178C40.2364 33.5395 40.494 33.841 40.7889 33.9476C40.847 33.9689 40.9523 33.9957 40.9947 33.9221C41.1755 33.5112 41.346 33.0423 41.2527 32.5673C41.2161 32.4563 41.1215 32.3453 41.0055 32.3078C40.8896 32.2758 40.7681 32.3124 40.6678 32.3595C40.3718 32.5537 40.2281 32.8749 40.2165 33.2178ZM38.6872 36.177C38.6969 36.3564 38.786 36.5412 38.9705 36.6C39.0916 36.6425 39.2237 36.5903 39.3294 36.5377C39.9376 36.0865 40.2987 35.3913 40.6279 34.7594C40.6597 34.6962 40.6866 34.5962 40.6022 34.5483C40.2863 34.389 39.9813 34.14 39.729 33.8596C39.6976 33.8278 39.6394 33.8223 39.6026 33.8434C39.3746 34.1484 39.2257 34.4856 39.0662 34.8226C38.8854 35.2493 38.6888 35.6704 38.6872 36.177ZM38.5176 33.312C39.1271 32.5072 39.9372 31.629 40.9609 31.5638C41.2191 31.5702 41.4456 31.6765 41.6031 31.8933C42.0388 32.5384 41.6718 33.3653 41.5112 34.0187C41.4954 34.0768 41.5375 34.119 41.5794 34.1348C41.7905 34.1674 42.0333 34.1367 42.2181 34.0424L42.2977 33.9423C43.0329 31.8455 44.1262 29.8976 45.4249 28.04C46.2358 26.9668 47.2734 25.8573 48.4779 25.3391C48.7633 25.2401 49.1749 25.1201 49.4485 25.3321C49.7535 25.5809 49.6677 26.0133 49.5874 26.3453C49.5549 26.6406 49.2276 26.6709 49.0112 26.7391C49.0007 26.7336 48.9898 26.7389 48.9794 26.7283C48.9854 26.5384 49.0863 26.3699 49.1236 26.1855C49.1346 26.0851 49.1508 26.001 49.1087 25.9058C49.0565 25.8108 48.9404 25.842 48.8612 25.8681C48.4542 26.0669 48.126 26.4298 47.8135 26.7823C46.6483 28.1338 45.8045 29.6343 45.0291 31.1507C44.7743 31.6774 44.5084 32.1987 44.3009 32.7464C44.2954 32.7782 44.3061 32.7994 44.3323 32.8205C44.5117 32.8159 44.6179 32.6316 44.7553 32.5373C45.7819 31.607 46.6138 30.5392 47.3822 29.4553C47.5463 29.3765 47.7359 29.3774 47.9259 29.3621L47.9629 29.3726C47.9518 29.5205 47.8249 29.6361 47.7558 29.7677C46.8969 31.0043 45.9223 32.1876 44.737 33.265L43.8799 33.9689C43.7001 34.1266 43.694 34.3691 43.6036 34.5692C43.4384 35.112 43.2726 35.6651 43.2497 36.2614C43.2546 36.3615 43.2912 36.4565 43.3754 36.5096C43.6019 36.6107 43.7818 36.395 43.9406 36.248C45.1006 34.9068 45.6127 33.2628 47.0303 32.0598C47.496 31.6923 48.1088 31.3777 48.7093 31.6542C48.8145 31.6915 48.8932 31.8288 49.0202 31.7659C49.11 31.7029 49.1157 31.5607 49.2423 31.5662C49.6591 31.5625 50.1023 31.5482 50.5028 31.5813C50.5398 31.6131 50.5131 31.6656 50.5025 31.7025L50.2156 32.2817L48.4415 35.8626C48.3618 36.0258 48.2558 36.1995 48.2655 36.3841C48.2918 36.4633 48.3761 36.469 48.4447 36.4534C48.7778 36.2698 49.0213 35.9648 49.2386 35.6543C49.456 35.3491 49.6311 35.0279 49.838 34.7175C49.949 34.6651 50.1019 34.6868 50.2232 34.703C50.2967 34.7717 50.2015 34.861 50.1855 34.9402C49.6646 36.0198 48.938 37.1989 47.8019 37.7963C47.5377 37.9273 47.1733 38.0473 46.8837 37.8879C46.6522 37.729 46.6742 37.4389 46.5697 37.2169C46.5485 37.1853 46.4956 37.1904 46.4693 37.206C45.9984 37.6265 45.4905 38.0994 44.8318 37.9177C44.4209 37.7266 44.375 37.2516 44.3446 36.8453C44.3237 36.8294 44.3344 36.7979 44.3081 36.7819L44.2553 36.8029C43.7945 37.3551 43.2118 38.0441 42.4366 37.9782C42.1411 37.9559 41.8839 37.6702 41.7949 37.4063C41.5237 36.5455 41.8118 35.6023 42.0046 34.7748C42.0048 34.7273 41.952 34.6797 41.9101 34.6742L41.2611 34.6824L41.1553 34.8035C40.6772 35.7406 40.1518 36.6462 39.3262 37.4293C38.8924 37.813 38.3586 38.1329 37.7631 37.9567C37.2681 37.7439 37.138 37.2055 37.1398 36.6991C37.2444 35.4231 37.8178 34.3436 38.5176 33.312Z" fill="white"/>
<path fill-rule="evenodd" clip-rule="evenodd" d="M47.2603 28.1677L47.8218 27.4417L47.9065 27.368C49.5314 27.3369 50.8008 26.3708 51.9439 25.2299C51.9382 25.3829 51.8691 25.525 51.8158 25.662C51.0659 27.4266 49.2461 28.9763 47.2785 29.0013L46.8141 28.9943C46.73 28.973 46.7882 28.8887 46.8095 28.8466L47.2603 28.1677Z" fill="white"/>
<path fill-rule="evenodd" clip-rule="evenodd" d="M49.5904 37.4487V37.2824H49.7014C49.7582 37.2824 49.8186 37.2946 49.8186 37.3613C49.8186 37.4439 49.7569 37.4487 49.6878 37.4487H49.5904ZM49.5904 37.5178H49.6841L49.826 37.7508H49.9173L49.7643 37.5141C49.8433 37.5044 49.9037 37.4623 49.9037 37.3662C49.9037 37.2602 49.8407 37.2133 49.7137 37.2133H49.5092V37.7508H49.5904V37.5178ZM49.6893 37.9482C49.943 37.9482 50.1601 37.7508 50.1601 37.4809C50.1601 37.2133 49.943 37.016 49.6893 37.016C49.4328 37.016 49.2156 37.2133 49.2156 37.4809C49.2156 37.7508 49.4328 37.9482 49.6893 37.9482ZM49.3093 37.4809C49.3093 37.2602 49.4758 37.0935 49.6893 37.0935C49.9 37.0935 50.0663 37.2602 50.0663 37.4809C50.0663 37.7052 49.9 37.8704 49.6893 37.8704C49.4758 37.8704 49.3093 37.7052 49.3093 37.4809Z" fill="white"/>
</svg>
